{
  "source": "C:\\Users\\Peter\\Desktop\\stuff\\MIUN\\quantitative_research\\video_compression\\videos\\HEVC_CLASS_B\\Kimono_1920x1080_24.y4m",
  "output": "C:\\Users\\Peter\\Desktop\\stuff\\MIUN\\quantitative_research\\video_compression\\compressed_videos\\HEVC_CLASS_B\\hevc\\1.5\\Kimono_1920x1080_24_hevc.mp4",
  "codec": "hevc",
  "ok": "Input #0, yuv4mpegpipe, from 'C:\\Users\\Peter\\Desktop\\stuff\\MIUN\\quantitative_research\\video_compression\\videos\\HEVC_CLASS_B\\Kimono_1920x1080_24.y4m':\n  Duration: 00:00:10.00, start: 0.000000, bitrate: 597198 kb/s\n  Stream #0:0: Video: rawvideo (I420 / 0x30323449), yuv420p(progressive), 1920x1080, 24 fps, 24 tbr, 24 tbn\n[out#0/mp4 @ 0000019ad9c2b680] Codec AVOption b:a (set bitrate (in bits/s)) has not been used for any stream. The most likely reason is either wrong type (e.g. a video option with no video streams) or that it is a private option of some decoder which was not actually used for any stream.\nStream mapping:\n  Stream #0:0 -> #0:0 (rawvideo (native) -> hevc (libx265))\nPress [q] to stop, [?] for help\n[libx265 @ 0000019ad9c2cac0] Unknown option: \"aq-mode.\nx265 [info]: HEVC encoder version 4.1+190-8f11c33ac\nx265 [info]: build info [Windows][GCC 15.1.0][64 bit] 10bit\nx265 [info]: using cpu capabilities: MMX2 SSE2Fast LZCNT SSSE3 SSE4.2 AVX FMA3 BMI2 AVX2\nx265 [info]: Main 10 profile, Level-4 (Main tier)\nx265 [info]: Thread pool created using 12 threads\nx265 [info]: Slices                              : 1\nx265 [info]: frame threads / pool features       : 3 / wpp(17 rows)\nx265 [info]: Coding QT: max CU size, min CU size : 64 / 8\nx265 [info]: Residual QT: max TU size, max depth : 32 / 1 inter / 1 intra\nx265 [info]: ME / range / subpel / merge         : star / 57 / 3 / 3\nx265 [info]: Keyframe min / max / scenecut / bias  : 24 / 250 / 40 / 5.00 \nx265 [info]: Lookahead / bframes / badapt        : 25 / 4 / 2\nx265 [info]: b-pyramid / weightp / weightb       : 1 / 1 / 0\nx265 [info]: References / ref-limit  cu / depth  : 4 / on / on\nx265 [info]: AQ: mode / str / qg-size / cu-tree  : 2 / 1.0 / 32 / 1\nx265 [info]: Rate Control / qCompress            : ABR-1500 kbps / 0.60\nx265 [info]: VBV/HRD buffer / max-rate / init    : 1500 / 1500 / 0.750\nx265 [info]: tools: rect limit-modes rd=4 psy-rd=2.00 rdoq=2 psy-rdoq=1.00\nx265 [info]: tools: rskip mode=1 signhide tmvp strong-intra-smoothing lslices=4\nx265 [info]: tools: deblock sao dhdr10-info\nOutput #0, mp4, to 'C:\\Users\\Peter\\Desktop\\stuff\\MIUN\\quantitative_research\\video_compression\\compressed_videos\\HEVC_CLASS_B\\hevc\\1.5\\Kimono_1920x1080_24_hevc.mp4':\n  Metadata:\n    encoder         : Lavf62.3.100\n  Stream #0:0: Video: hevc (hev1 / 0x31766568), yuv420p10le(tv, progressive), 1920x1080, q=2-31, 1500 kb/s, 24 fps, 12288 tbn\n    Metadata:\n      encoder         : Lavc62.11.100 libx265\n    Side data:\n      cpb: bitrate max/min/avg: 1500000/0/1500000 buffer size: 1500000 vbv_delay: N/A\nframe=    0 fps=0.0 q=0.0 size=       0KiB time=N/A bitrate=N/A speed=N/A elapsed=0:00:00.51    \nframe=    0 fps=0.0 q=0.0 size=       0KiB time=N/A bitrate=N/A speed=N/A elapsed=0:00:01.05    \nframe=    0 fps=0.0 q=0.0 size=       0KiB time=N/A bitrate=N/A speed=N/A elapsed=0:00:01.57    \nframe=    0 fps=0.0 q=0.0 size=       0KiB time=N/A bitrate=N/A speed=N/A elapsed=0:00:02.10    \nframe=    0 fps=0.0 q=0.0 size=       0KiB time=N/A bitrate=N/A speed=N/A elapsed=0:00:02.62    \nframe=    0 fps=0.0 q=0.0 size=       0KiB time=N/A bitrate=N/A speed=N/A elapsed=0:00:03.13    \nframe=    0 fps=0.0 q=0.0 size=       0KiB time=N/A bitrate=N/A speed=N/A elapsed=0:00:03.65    \nframe=    0 fps=0.0 q=0.0 size=       0KiB time=N/A bitrate=N/A speed=N/A elapsed=0:00:04.17    \nframe=    0 fps=0.0 q=0.0 size=       0KiB time=N/A bitrate=N/A speed=N/A elapsed=0:00:04.70    \nframe=    0 fps=0.0 q=0.0 size=       0KiB time=N/A bitrate=N/A speed=N/A elapsed=0:00:05.21    \nframe=    0 fps=0.0 q=0.0 size=       0KiB time=N/A bitrate=N/A speed=N/A elapsed=0:00:05.74    \nframe=    0 fps=0.0 q=0.0 size=       0KiB time=N/A bitrate=N/A speed=N/A elapsed=0:00:06.25    \nframe=    0 fps=0.0 q=0.0 size=       0KiB time=N/A bitrate=N/A speed=N/A elapsed=0:00:06.77    \nframe=    0 fps=0.0 q=0.0 size=       0KiB time=N/A bitrate=N/A speed=N/A elapsed=0:00:07.28    \nframe=    0 fps=0.0 q=0.0 size=       0KiB time=N/A bitrate=N/A speed=N/A elapsed=0:00:07.82    \nframe=    1 fps=0.1 q=36.8 size=       0KiB time=-00:00:00.04 bitrate=N/A speed=N/A elapsed=0:00:08.33    \nframe=    1 fps=0.1 q=36.8 size=       0KiB time=-00:00:00.04 bitrate=N/A speed=N/A elapsed=0:00:08.86    \nframe=    2 fps=0.2 q=40.7 size=       0KiB time=00:00:00.00 bitrate=N/A speed=   0x elapsed=0:00:09.40    \nframe=    2 fps=0.2 q=40.7 size=       0KiB time=00:00:00.00 bitrate=N/A speed=   0x elapsed=0:00:09.91    \nframe=    3 fps=0.3 q=43.4 size=       0KiB time=00:00:00.04 bitrate=   8.4kbits/s speed=0.00399x elapsed=0:00:10.43    \nframe=    3 fps=0.3 q=43.4 size=       0KiB time=00:00:00.04 bitrate=   8.4kbits/s speed=0.00381x elapsed=0:00:10.94    \nframe=    3 fps=0.3 q=43.4 size=       0KiB time=00:00:00.04 bitrate=   8.4kbits/s speed=0.00363x elapsed=0:00:11.46    \nframe=    3 fps=0.3 q=43.4 size=       0KiB time=00:00:00.04 bitrate=   8.4kbits/s speed=0.00348x elapsed=0:00:11.98    \nframe=    4 fps=0.3 q=45.8 size=       0KiB time=00:00:00.08 bitrate=   4.2kbits/s speed=0.00666x elapsed=0:00:12.51    \nframe=    4 fps=0.3 q=45.8 size=       0KiB time=00:00:00.08 bitrate=   4.2kbits/s speed=0.0064x elapsed=0:00:13.02    \nframe=    4 fps=0.3 q=45.8 size=       0KiB time=00:00:00.08 bitrate=   4.2kbits/s speed=0.00615x elapsed=0:00:13.54    \nframe=    5 fps=0.4 q=44.1 size=       0KiB time=00:00:00.12 bitrate=   2.8kbits/s speed=0.00887x elapsed=0:00:14.09    \nframe=    5 fps=0.3 q=44.1 size=       0KiB time=00:00:00.12 bitrate=   2.8kbits/s speed=0.00855x elapsed=0:00:14.61    \nframe=    5 fps=0.3 q=44.1 size=       0KiB time=00:00:00.12 bitrate=   2.8kbits/s speed=0.00826x elapsed=0:00:15.13    \nframe=    5 fps=0.3 q=44.1 size=       0KiB time=00:00:00.12 bitrate=   2.8kbits/s speed=0.00797x elapsed=0:00:15.67    \nframe=    6 fps=0.4 q=38.3 size=       0KiB time=00:00:00.16 bitrate=   2.1kbits/s speed=0.0103x elapsed=0:00:16.18    \nframe=    6 fps=0.4 q=38.3 size=       0KiB time=00:00:00.16 bitrate=   2.1kbits/s speed=0.00997x elapsed=0:00:16.70    \nframe=    6 fps=0.3 q=38.3 size=       0KiB time=00:00:00.16 bitrate=   2.1kbits/s speed=0.00967x elapsed=0:00:17.23    \nframe=    7 fps=0.4 q=42.5 size=       0KiB time=00:00:00.20 bitrate=   1.7kbits/s speed=0.0117x elapsed=0:00:17.76    \nframe=    7 fps=0.4 q=42.5 size=       0KiB time=00:00:00.20 bitrate=   1.7kbits/s speed=0.0114x elapsed=0:00:18.28    \nframe=    7 fps=0.4 q=42.5 size=       0KiB time=00:00:00.20 bitrate=   1.7kbits/s speed=0.0111x elapsed=0:00:18.81    \nframe=    8 fps=0.4 q=43.3 size=       0KiB time=00:00:00.25 bitrate=   1.4kbits/s speed=0.0129x elapsed=0:00:19.36    \nframe=    8 fps=0.4 q=43.3 size=       0KiB time=00:00:00.25 bitrate=   1.4kbits/s speed=0.0126x elapsed=0:00:19.88    \nframe=    8 fps=0.4 q=43.3 size=       0KiB time=00:00:00.25 bitrate=   1.4kbits/s speed=0.0122x elapsed=0:00:20.41    \nframe=    8 fps=0.4 q=43.3 size=       0KiB time=00:00:00.25 bitrate=   1.4kbits/s speed=0.0119x elapsed=0:00:20.93    \nframe=    9 fps=0.4 q=43.0 size=       0KiB time=00:00:00.29 bitrate=   1.2kbits/s speed=0.0136x elapsed=0:00:21.45    \nframe=    9 fps=0.4 q=43.0 size=       0KiB time=00:00:00.29 bitrate=   1.2kbits/s speed=0.0133x elapsed=0:00:22.00    \nframe=    9 fps=0.4 q=43.0 size=       0KiB time=00:00:00.29 bitrate=   1.2kbits/s speed=0.013x elapsed=0:00:22.51    \nframe=   10 fps=0.4 q=41.6 size=       0KiB time=00:00:00.33 bitrate=   1.1kbits/s speed=0.0145x elapsed=0:00:23.02    \nframe=   10 fps=0.4 q=41.6 size=       0KiB time=00:00:00.33 bitrate=   1.1kbits/s speed=0.0142x elapsed=0:00:23.54    \nframe=   10 fps=0.4 q=41.6 size=       0KiB time=00:00:00.33 bitrate=   1.1kbits/s speed=0.0139x elapsed=0:00:24.05    \nframe=   11 fps=0.4 q=36.5 size=       0KiB time=00:00:00.37 bitrate=   0.9kbits/s speed=0.0153x elapsed=0:00:24.57    \nframe=   11 fps=0.4 q=36.5 size=       0KiB time=00:00:00.37 bitrate=   0.9kbits/s speed=0.0149x elapsed=0:00:25.09    \nframe=   12 fps=0.5 q=39.3 size=       0KiB time=00:00:00.41 bitrate=   0.8kbits/s speed=0.0163x elapsed=0:00:25.60    \nframe=   12 fps=0.5 q=39.3 size=       0KiB time=00:00:00.41 bitrate=   0.8kbits/s speed=0.0159x elapsed=0:00:26.13    \nframe=   12 fps=0.4 q=39.3 size=       0KiB time=00:00:00.41 bitrate=   0.8kbits/s speed=0.0156x elapsed=0:00:26.66    \nframe=   12 fps=0.4 q=39.3 size=       0KiB time=00:00:00.41 bitrate=   0.8kbits/s speed=0.0153x elapsed=0:00:27.17    \nframe=   12 fps=0.4 q=39.3 size=       0KiB time=00:00:00.41 bitrate=   0.8kbits/s speed=0.015x elapsed=0:00:27.72    \nframe=   12 fps=0.4 q=39.3 size=       0KiB time=00:00:00.41 bitrate=   0.8kbits/s speed=0.0148x elapsed=0:00:28.24    \nframe=   12 fps=0.4 q=39.3 size=       0KiB time=00:00:00.41 bitrate=   0.8kbits/s speed=0.0145x elapsed=0:00:28.76    \nframe=   13 fps=0.4 q=41.2 size=       0KiB time=00:00:00.45 bitrate=   0.8kbits/s speed=0.0157x elapsed=0:00:29.27    \nframe=   13 fps=0.4 q=41.2 size=       0KiB time=00:00:00.45 bitrate=   0.8kbits/s speed=0.0154x elapsed=0:00:29.80    \nframe=   13 fps=0.4 q=41.2 size=       0KiB time=00:00:00.45 bitrate=   0.8kbits/s speed=0.0151x elapsed=0:00:30.32    \nframe=   14 fps=0.5 q=40.9 size=       0KiB time=00:00:00.50 bitrate=   0.7kbits/s speed=0.0162x elapsed=0:00:30.84    \nframe=   14 fps=0.4 q=40.9 size=       0KiB time=00:00:00.50 bitrate=   0.7kbits/s speed=0.0159x elapsed=0:00:31.39    \nframe=   14 fps=0.4 q=40.9 size=       0KiB time=00:00:00.50 bitrate=   0.7kbits/s speed=0.0157x elapsed=0:00:31.91    \nframe=   15 fps=0.5 q=36.2 size=       0KiB time=00:00:00.54 bitrate=   0.6kbits/s speed=0.0167x elapsed=0:00:32.46    \nframe=   15 fps=0.5 q=36.2 size=       0KiB time=00:00:00.54 bitrate=   0.6kbits/s speed=0.0164x elapsed=0:00:32.97    \nframe=   15 fps=0.4 q=36.2 size=       0KiB time=00:00:00.54 bitrate=   0.6kbits/s speed=0.0162x elapsed=0:00:33.49    \nframe=   16 fps=0.5 q=38.5 size=       0KiB time=00:00:00.58 bitrate=   0.6kbits/s speed=0.0172x elapsed=0:00:34.01    \nframe=   16 fps=0.5 q=38.5 size=       0KiB time=00:00:00.58 bitrate=   0.6kbits/s speed=0.0169x elapsed=0:00:34.55    \nframe=   16 fps=0.5 q=38.5 size=       0KiB time=00:00:00.58 bitrate=   0.6kbits/s speed=0.0166x elapsed=0:00:35.08    \nframe=   16 fps=0.4 q=38.5 size=       0KiB time=00:00:00.58 bitrate=   0.6kbits/s speed=0.0164x elapsed=0:00:35.58    \nframe=   16 fps=0.4 q=38.5 size=       0KiB time=00:00:00.58 bitrate=   0.6kbits/s speed=0.0162x elapsed=0:00:36.10    \nframe=   17 fps=0.5 q=41.0 size=       0KiB time=00:00:00.62 bitrate=   0.6kbits/s speed=0.0171x elapsed=0:00:36.61    \nframe=   17 fps=0.5 q=41.0 size=       0KiB time=00:00:00.62 bitrate=   0.6kbits/s speed=0.0168x elapsed=0:00:37.13    \nframe=   17 fps=0.5 q=41.0 size=       0KiB time=00:00:00.62 bitrate=   0.6kbits/s speed=0.0166x elapsed=0:00:37.66    \nframe=   17 fps=0.4 q=41.0 size=       0KiB time=00:00:00.62 bitrate=   0.6kbits/s speed=0.0164x elapsed=0:00:38.16    \nframe=   18 fps=0.5 q=41.3 size=       0KiB time=00:00:00.66 bitrate=   0.5kbits/s speed=0.0172x elapsed=0:00:38.68    \nframe=   18 fps=0.5 q=41.3 size=       0KiB time=00:00:00.66 bitrate=   0.5kbits/s speed=0.017x elapsed=0:00:39.20    \nframe=   18 fps=0.5 q=41.3 size=       0KiB time=00:00:00.66 bitrate=   0.5kbits/s speed=0.0168x elapsed=0:00:39.74    \nframe=   19 fps=0.5 q=36.3 size=       0KiB time=00:00:00.70 bitrate=   0.5kbits/s speed=0.0176x elapsed=0:00:40.28    \nframe=   19 fps=0.5 q=36.3 size=       0KiB time=00:00:00.70 bitrate=   0.5kbits/s speed=0.0174x elapsed=0:00:40.81    \nframe=   20 fps=0.5 q=36.4 size=       0KiB time=00:00:00.75 bitrate=   0.5kbits/s speed=0.0181x elapsed=0:00:41.34    \nframe=   20 fps=0.5 q=36.4 size=       0KiB time=00:00:00.75 bitrate=   0.5kbits/s speed=0.0179x elapsed=0:00:41.86    \nframe=   21 fps=0.5 q=41.1 size=       0KiB time=00:00:00.79 bitrate=   0.4kbits/s speed=0.0187x elapsed=0:00:42.37    \nframe=   21 fps=0.5 q=41.1 size=       0KiB time=00:00:00.79 bitrate=   0.4kbits/s speed=0.0185x elapsed=0:00:42.89    \nframe=   21 fps=0.5 q=41.1 size=       0KiB time=00:00:00.79 bitrate=   0.4kbits/s speed=0.0182x elapsed=0:00:43.42    \nframe=   21 fps=0.5 q=41.1 size=       0KiB time=00:00:00.79 bitrate=   0.4kbits/s speed=0.018x elapsed=0:00:43.94    \nframe=   21 fps=0.5 q=41.1 size=       0KiB time=00:00:00.79 bitrate=   0.4kbits/s speed=0.0178x elapsed=0:00:44.47    \nframe=   21 fps=0.5 q=41.1 size=       0KiB time=00:00:00.79 bitrate=   0.4kbits/s speed=0.0176x elapsed=0:00:44.99    \nframe=   21 fps=0.5 q=41.1 size=       0KiB time=00:00:00.79 bitrate=   0.4kbits/s speed=0.0174x elapsed=0:00:45.52    \nframe=   21 fps=0.5 q=41.1 size=       0KiB time=00:00:00.79 bitrate=   0.4kbits/s speed=0.0172x elapsed=0:00:46.05    \nframe=   21 fps=0.5 q=41.1 size=       0KiB time=00:00:00.79 bitrate=   0.4kbits/s speed=0.017x elapsed=0:00:46.58    \nframe=   22 fps=0.5 q=41.0 size=       0KiB time=00:00:00.83 bitrate=   0.4kbits/s speed=0.0177x elapsed=0:00:47.10    \nframe=   22 fps=0.5 q=41.0 size=       0KiB time=00:00:00.83 bitrate=   0.4kbits/s speed=0.0175x elapsed=0:00:47.64    \nframe=   22 fps=0.5 q=41.0 size=       0KiB time=00:00:00.83 bitrate=   0.4kbits/s speed=0.0173x elapsed=0:00:48.14    \nframe=   22 fps=0.5 q=41.0 size=       0KiB time=00:00:00.83 bitrate=   0.4kbits/s speed=0.0171x elapsed=0:00:48.66    \nframe=   22 fps=0.4 q=41.0 size=       0KiB time=00:00:00.83 bitrate=   0.4kbits/s speed=0.0169x elapsed=0:00:49.18    \nframe=   23 fps=0.5 q=40.9 size=       0KiB time=00:00:00.87 bitrate=   0.4kbits/s speed=0.0176x elapsed=0:00:49.70    \nframe=   23 fps=0.5 q=40.9 size=       0KiB time=00:00:00.87 bitrate=   0.4kbits/s speed=0.0174x elapsed=0:00:50.22    \nframe=   23 fps=0.5 q=40.9 size=       0KiB time=00:00:00.87 bitrate=   0.4kbits/s speed=0.0172x elapsed=0:00:50.73    \nframe=   24 fps=0.5 q=36.1 size=       0KiB time=00:00:00.91 bitrate=   0.4kbits/s speed=0.0179x elapsed=0:00:51.24    \nframe=   24 fps=0.5 q=36.1 size=       0KiB time=00:00:00.91 bitrate=   0.4kbits/s speed=0.0177x elapsed=0:00:51.76    \nframe=   25 fps=0.5 q=36.6 size=       0KiB time=00:00:00.95 bitrate=   0.4kbits/s speed=0.0183x elapsed=0:00:52.27    \nframe=   25 fps=0.5 q=36.6 size=       0KiB time=00:00:00.95 bitrate=   0.4kbits/s speed=0.0182x elapsed=0:00:52.79    \nframe=   25 fps=0.5 q=36.6 size=       0KiB time=00:00:00.95 bitrate=   0.4kbits/s speed=0.018x elapsed=0:00:53.31    \nframe=   26 fps=0.5 q=41.0 size=       0KiB time=00:00:01.00 bitrate=   0.4kbits/s speed=0.0186x elapsed=0:00:53.83    \nframe=   26 fps=0.5 q=41.0 size=       0KiB time=00:00:01.00 bitrate=   0.4kbits/s speed=0.0184x elapsed=0:00:54.36    \nframe=   26 fps=0.5 q=41.0 size=       0KiB time=00:00:01.00 bitrate=   0.4kbits/s speed=0.0182x elapsed=0:00:54.87    \nframe=   26 fps=0.5 q=41.0 size=       0KiB time=00:00:01.00 bitrate=   0.4kbits/s speed=0.0181x elapsed=0:00:55.39    \nframe=   26 fps=0.5 q=41.0 size=       0KiB time=00:00:01.00 bitrate=   0.4kbits/s speed=0.0179x elapsed=0:00:55.93    \nframe=   27 fps=0.5 q=41.0 size=       0KiB time=00:00:01.04 bitrate=   0.3kbits/s speed=0.0185x elapsed=0:00:56.45    \nframe=   27 fps=0.5 q=41.0 size=       0KiB time=00:00:01.04 bitrate=   0.3kbits/s speed=0.0183x elapsed=0:00:56.99    \nframe=   27 fps=0.5 q=41.0 size=       0KiB time=00:00:01.04 bitrate=   0.3kbits/s speed=0.0181x elapsed=0:00:57.51    \nframe=   27 fps=0.5 q=41.0 size=       0KiB time=00:00:01.04 bitrate=   0.3kbits/s speed=0.018x elapsed=0:00:58.02    \nframe=   28 fps=0.5 q=40.7 size=       0KiB time=00:00:01.08 bitrate=   0.3kbits/s speed=0.0185x elapsed=0:00:58.54    \nframe=   28 fps=0.5 q=40.7 size=       0KiB time=00:00:01.08 bitrate=   0.3kbits/s speed=0.0183x elapsed=0:00:59.08    \nframe=   29 fps=0.5 q=35.8 size=       0KiB time=00:00:01.12 bitrate=   0.3kbits/s speed=0.0189x elapsed=0:00:59.61    \nframe=   29 fps=0.5 q=35.8 size=       0KiB time=00:00:01.12 bitrate=   0.3kbits/s speed=0.0187x elapsed=0:01:00.16    \nframe=   30 fps=0.5 q=38.0 size=       0KiB time=00:00:01.16 bitrate=   0.3kbits/s speed=0.0192x elapsed=0:01:00.68    \nframe=   30 fps=0.5 q=38.0 size=       0KiB time=00:00:01.16 bitrate=   0.3kbits/s speed=0.0191x elapsed=0:01:01.19    \nframe=   30 fps=0.5 q=38.0 size=       0KiB time=00:00:01.16 bitrate=   0.3kbits/s speed=0.0189x elapsed=0:01:01.72    \nframe=   30 fps=0.5 q=38.0 size=       0KiB time=00:00:01.16 bitrate=   0.3kbits/s speed=0.0187x elapsed=0:01:02.24    \nframe=   30 fps=0.5 q=38.0 size=       0KiB time=00:00:01.16 bitrate=   0.3kbits/s speed=0.0186x elapsed=0:01:02.77    \nframe=   31 fps=0.5 q=40.5 size=       0KiB time=00:00:01.20 bitrate=   0.3kbits/s speed=0.0191x elapsed=0:01:03.29    \nframe=   31 fps=0.5 q=40.5 size=       0KiB time=00:00:01.20 bitrate=   0.3kbits/s speed=0.0189x elapsed=0:01:03.81    \nframe=   31 fps=0.5 q=40.5 size=       0KiB time=00:00:01.20 bitrate=   0.3kbits/s speed=0.0188x elapsed=0:01:04.34    \nframe=   31 fps=0.5 q=40.5 size=       0KiB time=00:00:01.20 bitrate=   0.3kbits/s speed=0.0186x elapsed=0:01:04.86    \nframe=   32 fps=0.5 q=40.6 size=       0KiB time=00:00:01.25 bitrate=   0.3kbits/s speed=0.0191x elapsed=0:01:05.38    \nframe=   32 fps=0.5 q=40.6 size=       0KiB time=00:00:01.25 bitrate=   0.3kbits/s speed=0.019x elapsed=0:01:05.91    \nframe=   32 fps=0.5 q=40.6 size=       0KiB time=00:00:01.25 bitrate=   0.3kbits/s speed=0.0188x elapsed=0:01:06.43    \nframe=   33 fps=0.5 q=35.6 size=       0KiB time=00:00:01.29 bitrate=   0.3kbits/s speed=0.0193x elapsed=0:01:06.95    \nframe=   33 fps=0.5 q=35.6 size=       0KiB time=00:00:01.29 bitrate=   0.3kbits/s speed=0.0191x elapsed=0:01:07.46    \nframe=   34 fps=0.5 q=37.8 size=       0KiB time=00:00:01.33 bitrate=   0.3kbits/s speed=0.0196x elapsed=0:01:07.97    \nframe=   34 fps=0.5 q=37.8 size=       0KiB time=00:00:01.33 bitrate=   0.3kbits/s speed=0.0195x elapsed=0:01:08.49    \nframe=   34 fps=0.5 q=37.8 size=       0KiB time=00:00:01.33 bitrate=   0.3kbits/s speed=0.0193x elapsed=0:01:09.03    \nframe=   34 fps=0.5 q=37.8 size=       0KiB time=00:00:01.33 bitrate=   0.3kbits/s speed=0.0192x elapsed=0:01:09.54    \nframe=   34 fps=0.5 q=37.8 size=       0KiB time=00:00:01.33 bitrate=   0.3kbits/s speed=0.019x elapsed=0:01:10.08    \nframe=   35 fps=0.5 q=40.7 size=       0KiB time=00:00:01.37 bitrate=   0.3kbits/s speed=0.0195x elapsed=0:01:10.59    \nframe=   35 fps=0.5 q=40.7 size=       0KiB time=00:00:01.37 bitrate=   0.3kbits/s speed=0.0193x elapsed=0:01:11.12    \nframe=   35 fps=0.5 q=40.7 size=       0KiB time=00:00:01.37 bitrate=   0.3kbits/s speed=0.0192x elapsed=0:01:11.64    \nframe=   35 fps=0.5 q=40.7 size=       0KiB time=00:00:01.37 bitrate=   0.3kbits/s speed=0.0191x elapsed=0:01:12.17    \nframe=   35 fps=0.5 q=40.7 size=       0KiB time=00:00:01.37 bitrate=   0.3kbits/s speed=0.0189x elapsed=0:01:12.68    \nframe=   36 fps=0.5 q=40.6 size=       0KiB time=00:00:01.41 bitrate=   0.2kbits/s speed=0.0193x elapsed=0:01:13.22    \nframe=   36 fps=0.5 q=40.6 size=       0KiB time=00:00:01.41 bitrate=   0.2kbits/s speed=0.0192x elapsed=0:01:13.74    \nframe=   37 fps=0.5 q=35.7 size=       0KiB time=00:00:01.45 bitrate=   0.2kbits/s speed=0.0196x elapsed=0:01:14.25    \nframe=   37 fps=0.5 q=35.7 size=       0KiB time=00:00:01.45 bitrate=   0.2kbits/s speed=0.0195x elapsed=0:01:14.77    \nframe=   38 fps=0.5 q=37.7 size=     256KiB time=00:00:01.50 bitrate=1398.3kbits/s speed=0.0199x elapsed=0:01:15.29    \nframe=   38 fps=0.5 q=37.7 size=     256KiB time=00:00:01.50 bitrate=1398.3kbits/s speed=0.0198x elapsed=0:01:15.82    \nframe=   38 fps=0.5 q=37.7 size=     256KiB time=00:00:01.50 bitrate=1398.3kbits/s speed=0.0196x elapsed=0:01:16.36    \nframe=   38 fps=0.5 q=37.7 size=     256KiB time=00:00:01.50 bitrate=1398.3kbits/s speed=0.0195x elapsed=0:01:16.88    \nframe=   38 fps=0.5 q=37.7 size=     256KiB time=00:00:01.50 bitrate=1398.3kbits/s speed=0.0194x elapsed=0:01:17.41    \nframe=   38 fps=0.5 q=37.7 size=     256KiB time=00:00:01.50 bitrate=1398.3kbits/s speed=0.0192x elapsed=0:01:17.92    \nframe=   39 fps=0.5 q=40.9 size=     256KiB time=00:00:01.54 bitrate=1360.5kbits/s speed=0.0197x elapsed=0:01:18.45    \nframe=   39 fps=0.5 q=40.9 size=     256KiB time=00:00:01.54 bitrate=1360.5kbits/s speed=0.0195x elapsed=0:01:18.96    \nframe=   39 fps=0.5 q=40.9 size=     256KiB time=00:00:01.54 bitrate=1360.5kbits/s speed=0.0194x elapsed=0:01:19.48    \nframe=   39 fps=0.5 q=40.9 size=     256KiB time=00:00:01.54 bitrate=1360.5kbits/s speed=0.0193x elapsed=0:01:19.99    \nframe=   40 fps=0.5 q=40.3 size=     256KiB time=00:00:01.58 bitrate=1324.7kbits/s speed=0.0197x elapsed=0:01:20.50    \nframe=   40 fps=0.5 q=40.3 size=     256KiB time=00:00:01.58 bitrate=1324.7kbits/s speed=0.0195x elapsed=0:01:21.02    \nframe=   41 fps=0.5 q=36.2 size=     256KiB time=00:00:01.62 bitrate=1290.8kbits/s speed=0.0199x elapsed=0:01:21.54    \nframe=   42 fps=0.5 q=37.2 size=     256KiB time=00:00:01.66 bitrate=1258.5kbits/s speed=0.0203x elapsed=0:01:22.06    \nframe=   42 fps=0.5 q=37.2 size=     256KiB time=00:00:01.66 bitrate=1258.5kbits/s speed=0.0202x elapsed=0:01:22.57    \nframe=   42 fps=0.5 q=37.2 size=     256KiB time=00:00:01.66 bitrate=1258.5kbits/s speed=0.0201x elapsed=0:01:23.09    \nframe=   42 fps=0.5 q=37.2 size=     256KiB time=00:00:01.66 bitrate=1258.5kbits/s speed=0.0199x elapsed=0:01:23.62    \nframe=   42 fps=0.5 q=37.2 size=     256KiB time=00:00:01.66 bitrate=1258.5kbits/s speed=0.0198x elapsed=0:01:24.15    \nframe=   42 fps=0.5 q=37.2 size=     256KiB time=00:00:01.66 bitrate=1258.5kbits/s speed=0.0197x elapsed=0:01:24.68    \nframe=   42 fps=0.5 q=37.2 size=     256KiB time=00:00:01.66 bitrate=1258.5kbits/s speed=0.0196x elapsed=0:01:25.23    \nframe=   42 fps=0.5 q=37.2 size=     256KiB time=00:00:01.66 bitrate=1258.5kbits/s speed=0.0194x elapsed=0:01:25.77    \nframe=   43 fps=0.5 q=40.7 size=     256KiB time=00:00:01.70 bitrate=1227.8kbits/s speed=0.0198x elapsed=0:01:26.31    \nframe=   43 fps=0.5 q=40.7 size=     256KiB time=00:00:01.70 bitrate=1227.8kbits/s speed=0.0197x elapsed=0:01:26.82    \nframe=   44 fps=0.5 q=40.4 size=     256KiB time=00:00:01.75 bitrate=1198.6kbits/s speed=0.02x elapsed=0:01:27.34    \nframe=   44 fps=0.5 q=40.4 size=     256KiB time=00:00:01.75 bitrate=1198.6kbits/s speed=0.0199x elapsed=0:01:27.85    \nframe=   45 fps=0.5 q=35.9 size=     256KiB time=00:00:01.79 bitrate=1170.7kbits/s speed=0.0203x elapsed=0:01:28.37    \nframe=   46 fps=0.5 q=37.8 size=     256KiB time=00:00:01.83 bitrate=1144.1kbits/s speed=0.0206x elapsed=0:01:28.88    \nframe=   46 fps=0.5 q=37.8 size=     256KiB time=00:00:01.83 bitrate=1144.1kbits/s speed=0.0205x elapsed=0:01:29.41    \nframe=   47 fps=0.5 q=40.5 size=     256KiB time=00:00:01.87 bitrate=1118.7kbits/s speed=0.0209x elapsed=0:01:29.91    \nframe=   47 fps=0.5 q=40.5 size=     256KiB time=00:00:01.87 bitrate=1118.7kbits/s speed=0.0207x elapsed=0:01:30.43    \nframe=   48 fps=0.5 q=40.5 size=     256KiB time=00:00:01.91 bitrate=1094.3kbits/s speed=0.0211x elapsed=0:01:30.94    \nframe=   49 fps=0.5 q=35.8 size=     256KiB time=00:00:01.95 bitrate=1071.1kbits/s speed=0.0214x elapsed=0:01:31.46    \nframe=   50 fps=0.5 q=37.8 size=     256KiB time=00:00:02.00 bitrate=1048.8kbits/s speed=0.0217x elapsed=0:01:31.97    \nframe=   50 fps=0.5 q=37.8 size=     256KiB time=00:00:02.00 bitrate=1048.8kbits/s speed=0.0216x elapsed=0:01:32.49    \nframe=   50 fps=0.5 q=37.8 size=     256KiB time=00:00:02.00 bitrate=1048.8kbits/s speed=0.0215x elapsed=0:01:33.03    \nframe=   50 fps=0.5 q=37.8 size=     256KiB time=00:00:02.00 bitrate=1048.8kbits/s speed=0.0214x elapsed=0:01:33.56    \nframe=   51 fps=0.5 q=40.9 size=     256KiB time=00:00:02.04 bitrate=1027.3kbits/s speed=0.0217x elapsed=0:01:34.09    \nframe=   51 fps=0.5 q=40.9 size=     256KiB time=00:00:02.04 bitrate=1027.3kbits/s speed=0.0216x elapsed=0:01:34.60    \nframe=   51 fps=0.5 q=40.9 size=     256KiB time=00:00:02.04 bitrate=1027.3kbits/s speed=0.0215x elapsed=0:01:35.12    \nframe=   51 fps=0.5 q=40.9 size=     256KiB time=00:00:02.04 bitrate=1027.3kbits/s speed=0.0213x elapsed=0:01:35.63    \nframe=   52 fps=0.5 q=40.8 size=     256KiB time=00:00:02.08 bitrate=1006.8kbits/s speed=0.0217x elapsed=0:01:36.15    \nframe=   52 fps=0.5 q=40.8 size=     256KiB time=00:00:02.08 bitrate=1006.8kbits/s speed=0.0216x elapsed=0:01:36.66    \nframe=   52 fps=0.5 q=40.8 size=     256KiB time=00:00:02.08 bitrate=1006.8kbits/s speed=0.0214x elapsed=0:01:37.18    \nframe=   53 fps=0.5 q=35.8 size=     256KiB time=00:00:02.12 bitrate= 987.1kbits/s speed=0.0218x elapsed=0:01:37.69    \nframe=   53 fps=0.5 q=35.8 size=     256KiB time=00:00:02.12 bitrate= 987.1kbits/s speed=0.0216x elapsed=0:01:38.21    \nframe=   53 fps=0.5 q=35.8 size=     256KiB time=00:00:02.12 bitrate= 987.1kbits/s speed=0.0215x elapsed=0:01:38.74    \nframe=   54 fps=0.5 q=38.0 size=     256KiB time=00:00:02.16 bitrate= 968.1kbits/s speed=0.0218x elapsed=0:01:39.26    \nframe=   54 fps=0.5 q=38.0 size=     256KiB time=00:00:02.16 bitrate= 968.1kbits/s speed=0.0217x elapsed=0:01:39.79    \nframe=   54 fps=0.5 q=38.0 size=     256KiB time=00:00:02.16 bitrate= 968.1kbits/s speed=0.0216x elapsed=0:01:40.32    \nframe=   54 fps=0.5 q=38.0 size=     256KiB time=00:00:02.16 bitrate= 968.1kbits/s speed=0.0215x elapsed=0:01:40.86    \nframe=   54 fps=0.5 q=38.0 size=     256KiB time=00:00:02.16 bitrate= 968.1kbits/s speed=0.0214x elapsed=0:01:41.37    \nframe=   54 fps=0.5 q=38.0 size=     256KiB time=00:00:02.16 bitrate= 968.1kbits/s speed=0.0213x elapsed=0:01:41.89    \nframe=   54 fps=0.5 q=38.0 size=     256KiB time=00:00:02.16 bitrate= 968.1kbits/s speed=0.0212x elapsed=0:01:42.41    \nframe=   55 fps=0.5 q=40.2 size=     256KiB time=00:00:02.20 bitrate= 949.8kbits/s speed=0.0215x elapsed=0:01:42.93    \nframe=   55 fps=0.5 q=40.2 size=     256KiB time=00:00:02.20 bitrate= 949.8kbits/s speed=0.0213x elapsed=0:01:43.44    \nframe=   56 fps=0.5 q=40.3 size=     256KiB time=00:00:02.25 bitrate= 932.2kbits/s speed=0.0216x elapsed=0:01:43.96    \nframe=   56 fps=0.5 q=40.3 size=     256KiB time=00:00:02.25 bitrate= 932.2kbits/s speed=0.0215x elapsed=0:01:44.50    \nframe=   56 fps=0.5 q=40.3 size=     256KiB time=00:00:02.25 bitrate= 932.2kbits/s speed=0.0214x elapsed=0:01:45.03    \nframe=   57 fps=0.5 q=35.9 size=     256KiB time=00:00:02.29 bitrate= 915.3kbits/s speed=0.0217x elapsed=0:01:45.54    \nframe=   58 fps=0.5 q=38.1 size=     256KiB time=00:00:02.33 bitrate= 898.9kbits/s speed=0.022x elapsed=0:01:46.06    \nframe=   58 fps=0.5 q=38.1 size=     256KiB time=00:00:02.33 bitrate= 898.9kbits/s speed=0.0219x elapsed=0:01:46.59    \nframe=   58 fps=0.5 q=38.1 size=     256KiB time=00:00:02.33 bitrate= 898.9kbits/s speed=0.0218x elapsed=0:01:47.10    \nframe=   58 fps=0.5 q=38.1 size=     256KiB time=00:00:02.33 bitrate= 898.9kbits/s speed=0.0217x elapsed=0:01:47.62    \nframe=   58 fps=0.5 q=38.1 size=     256KiB time=00:00:02.33 bitrate= 898.9kbits/s speed=0.0216x elapsed=0:01:48.14    \nframe=   59 fps=0.5 q=40.1 size=     256KiB time=00:00:02.37 bitrate= 883.2kbits/s speed=0.0219x elapsed=0:01:48.67    \nframe=   59 fps=0.5 q=40.1 size=     256KiB time=00:00:02.37 bitrate= 883.2kbits/s speed=0.0217x elapsed=0:01:49.20    \nframe=   59 fps=0.5 q=40.1 size=     256KiB time=00:00:02.37 bitrate= 883.2kbits/s speed=0.0216x elapsed=0:01:49.74    \nframe=   59 fps=0.5 q=40.1 size=     256KiB time=00:00:02.37 bitrate= 883.2kbits/s speed=0.0215x elapsed=0:01:50.27    \nframe=   59 fps=0.5 q=40.1 size=     256KiB time=00:00:02.37 bitrate= 883.2kbits/s speed=0.0214x elapsed=0:01:50.81    \nframe=   60 fps=0.5 q=40.4 size=     256KiB time=00:00:02.41 bitrate= 867.9kbits/s speed=0.0217x elapsed=0:01:51.35    \nframe=   60 fps=0.5 q=40.4 size=     256KiB time=00:00:02.41 bitrate= 867.9kbits/s speed=0.0216x elapsed=0:01:51.87    \nframe=   61 fps=0.5 q=35.8 size=     256KiB time=00:00:02.45 bitrate= 853.2kbits/s speed=0.0219x elapsed=0:01:52.42    \nframe=   61 fps=0.5 q=35.8 size=     256KiB time=00:00:02.45 bitrate= 853.2kbits/s speed=0.0218x elapsed=0:01:52.95    \nframe=   62 fps=0.5 q=37.6 size=     256KiB time=00:00:02.50 bitrate= 839.0kbits/s speed=0.022x elapsed=0:01:53.49    \nframe=   62 fps=0.5 q=37.6 size=     256KiB time=00:00:02.50 bitrate= 839.0kbits/s speed=0.0219x elapsed=0:01:54.01    \nframe=   62 fps=0.5 q=37.6 size=     256KiB time=00:00:02.50 bitrate= 839.0kbits/s speed=0.0218x elapsed=0:01:54.53    \nframe=   62 fps=0.5 q=37.6 size=     256KiB time=00:00:02.50 bitrate= 839.0kbits/s speed=0.0217x elapsed=0:01:55.05    \nframe=   63 fps=0.5 q=40.7 size=     256KiB time=00:00:02.54 bitrate= 825.2kbits/s speed=0.022x elapsed=0:01:55.57    \nframe=   63 fps=0.5 q=40.7 size=     256KiB time=00:00:02.54 bitrate= 825.2kbits/s speed=0.0219x elapsed=0:01:56.08    \nframe=   63 fps=0.5 q=40.7 size=     256KiB time=00:00:02.54 bitrate= 825.2kbits/s speed=0.0218x elapsed=0:01:56.60    \nframe=   63 fps=0.5 q=40.7 size=     256KiB time=00:00:02.54 bitrate= 825.2kbits/s speed=0.0217x elapsed=0:01:57.12    \nframe=   64 fps=0.5 q=39.9 size=     256KiB time=00:00:02.58 bitrate= 811.9kbits/s speed=0.022x elapsed=0:01:57.63    \nframe=   64 fps=0.5 q=39.9 size=     256KiB time=00:00:02.58 bitrate= 811.9kbits/s speed=0.0219x elapsed=0:01:58.14    \nframe=   65 fps=0.5 q=35.6 size=     256KiB time=00:00:02.62 bitrate= 799.0kbits/s speed=0.0221x elapsed=0:01:58.67    \nframe=   66 fps=0.6 q=37.9 size=     256KiB time=00:00:02.66 bitrate= 786.6kbits/s speed=0.0224x elapsed=0:01:59.19    \nframe=   66 fps=0.6 q=37.9 size=     256KiB time=00:00:02.66 bitrate= 786.6kbits/s speed=0.0223x elapsed=0:01:59.71    \nframe=   66 fps=0.5 q=37.9 size=     256KiB time=00:00:02.66 bitrate= 786.6kbits/s speed=0.0222x elapsed=0:02:00.22    \nframe=   66 fps=0.5 q=37.9 size=     256KiB time=00:00:02.66 bitrate= 786.6kbits/s speed=0.0221x elapsed=0:02:00.75    \nframe=   66 fps=0.5 q=37.9 size=     256KiB time=00:00:02.66 bitrate= 786.6kbits/s speed=0.022x elapsed=0:02:01.29    \nframe=   66 fps=0.5 q=37.9 size=     256KiB time=00:00:02.66 bitrate= 786.6kbits/s speed=0.0219x elapsed=0:02:01.83    \nframe=   67 fps=0.5 q=40.6 size=     256KiB time=00:00:02.70 bitrate= 774.5kbits/s speed=0.0221x elapsed=0:02:02.33    \nframe=   67 fps=0.5 q=40.6 size=     256KiB time=00:00:02.70 bitrate= 774.5kbits/s speed=0.022x elapsed=0:02:02.85    \nframe=   67 fps=0.5 q=40.6 size=     256KiB time=00:00:02.70 bitrate= 774.5kbits/s speed=0.022x elapsed=0:02:03.37    \nframe=   67 fps=0.5 q=40.6 size=     256KiB time=00:00:02.70 bitrate= 774.5kbits/s speed=0.0219x elapsed=0:02:03.92    \nframe=   67 fps=0.5 q=40.6 size=     256KiB time=00:00:02.70 bitrate= 774.5kbits/s speed=0.0218x elapsed=0:02:04.44    \nframe=   67 fps=0.5 q=40.6 size=     256KiB time=00:00:02.70 bitrate= 774.5kbits/s speed=0.0217x elapsed=0:02:04.99    \nframe=   68 fps=0.5 q=39.9 size=     256KiB time=00:00:02.75 bitrate= 762.7kbits/s speed=0.0219x elapsed=0:02:05.52    \nframe=   68 fps=0.5 q=39.9 size=     256KiB time=00:00:02.75 bitrate= 762.7kbits/s speed=0.0218x elapsed=0:02:06.03    \nframe=   69 fps=0.5 q=35.6 size=     256KiB time=00:00:02.79 bitrate= 751.3kbits/s speed=0.0221x elapsed=0:02:06.54    \nframe=   70 fps=0.6 q=37.9 size=     512KiB time=00:00:02.83 bitrate=1480.5kbits/s speed=0.0223x elapsed=0:02:07.05    \nframe=   70 fps=0.5 q=37.9 size=     512KiB time=00:00:02.83 bitrate=1480.5kbits/s speed=0.0222x elapsed=0:02:07.57    \nframe=   71 fps=0.6 q=40.2 size=     512KiB time=00:00:02.87 bitrate=1459.0kbits/s speed=0.0224x elapsed=0:02:08.09    \nframe=   71 fps=0.6 q=40.2 size=     512KiB time=00:00:02.87 bitrate=1459.0kbits/s speed=0.0224x elapsed=0:02:08.60    \nframe=   71 fps=0.5 q=40.2 size=     512KiB time=00:00:02.87 bitrate=1459.0kbits/s speed=0.0223x elapsed=0:02:09.12    \nframe=   71 fps=0.5 q=40.2 size=     512KiB time=00:00:02.87 bitrate=1459.0kbits/s speed=0.0222x elapsed=0:02:09.65    \nframe=   71 fps=0.5 q=40.2 size=     512KiB time=00:00:02.87 bitrate=1459.0kbits/s speed=0.0221x elapsed=0:02:10.19    \nframe=   73 fps=0.6 q=35.5 size=     512KiB time=00:00:02.95 bitrate=1417.9kbits/s speed=0.0226x elapsed=0:02:10.70    \nframe=   73 fps=0.6 q=35.5 size=     512KiB time=00:00:02.95 bitrate=1417.9kbits/s speed=0.0225x elapsed=0:02:11.21    \nframe=   73 fps=0.6 q=35.5 size=     512KiB time=00:00:02.95 bitrate=1417.9kbits/s speed=0.0225x elapsed=0:02:11.72    \nframe=   74 fps=0.6 q=37.7 size=     512KiB time=00:00:03.00 bitrate=1398.2kbits/s speed=0.0227x elapsed=0:02:12.25    \nframe=   74 fps=0.6 q=37.7 size=     512KiB time=00:00:03.00 bitrate=1398.2kbits/s speed=0.0226x elapsed=0:02:12.78    \nframe=   74 fps=0.6 q=37.7 size=     512KiB time=00:00:03.00 bitrate=1398.2kbits/s speed=0.0225x elapsed=0:02:13.30    \nframe=   74 fps=0.6 q=37.7 size=     512KiB time=00:00:03.00 bitrate=1398.2kbits/s speed=0.0224x elapsed=0:02:13.81    \nframe=   74 fps=0.6 q=37.7 size=     512KiB time=00:00:03.00 bitrate=1398.2kbits/s speed=0.0223x elapsed=0:02:14.33    \nframe=   74 fps=0.5 q=37.7 size=     512KiB time=00:00:03.00 bitrate=1398.2kbits/s speed=0.0222x elapsed=0:02:14.85    \nframe=   75 fps=0.6 q=40.1 size=     512KiB time=00:00:03.04 bitrate=1379.1kbits/s speed=0.0225x elapsed=0:02:15.38    \nframe=   75 fps=0.6 q=40.1 size=     512KiB time=00:00:03.04 bitrate=1379.1kbits/s speed=0.0224x elapsed=0:02:15.89    \nframe=   75 fps=0.5 q=40.1 size=     512KiB time=00:00:03.04 bitrate=1379.1kbits/s speed=0.0223x elapsed=0:02:16.42    \nframe=   75 fps=0.5 q=40.1 size=     512KiB time=00:00:03.04 bitrate=1379.1kbits/s speed=0.0222x elapsed=0:02:16.95    \nframe=   76 fps=0.6 q=40.1 size=     512KiB time=00:00:03.08 bitrate=1360.4kbits/s speed=0.0224x elapsed=0:02:17.49    \nframe=   77 fps=0.6 q=35.2 size=     512KiB time=00:00:03.12 bitrate=1342.3kbits/s speed=0.0226x elapsed=0:02:18.01    \nframe=   77 fps=0.6 q=35.2 size=     512KiB time=00:00:03.12 bitrate=1342.3kbits/s speed=0.0226x elapsed=0:02:18.53    \nframe=   77 fps=0.6 q=35.2 size=     512KiB time=00:00:03.12 bitrate=1342.3kbits/s speed=0.0225x elapsed=0:02:19.04    \nframe=   77 fps=0.6 q=35.2 size=     512KiB time=00:00:03.12 bitrate=1342.3kbits/s speed=0.0224x elapsed=0:02:19.55    \nframe=   78 fps=0.6 q=37.6 size=     512KiB time=00:00:03.16 bitrate=1324.6kbits/s speed=0.0226x elapsed=0:02:20.07    \nframe=   78 fps=0.6 q=37.6 size=     512KiB time=00:00:03.16 bitrate=1324.6kbits/s speed=0.0225x elapsed=0:02:20.63    \nframe=   79 fps=0.6 q=39.9 size=     512KiB time=00:00:03.20 bitrate=1307.4kbits/s speed=0.0227x elapsed=0:02:21.19    \nframe=   79 fps=0.6 q=39.9 size=     512KiB time=00:00:03.20 bitrate=1307.4kbits/s speed=0.0226x elapsed=0:02:21.72    \nframe=   79 fps=0.6 q=39.9 size=     512KiB time=00:00:03.20 bitrate=1307.4kbits/s speed=0.0226x elapsed=0:02:22.24    \nframe=   79 fps=0.6 q=39.9 size=     512KiB time=00:00:03.20 bitrate=1307.4kbits/s speed=0.0225x elapsed=0:02:22.76    \nframe=   80 fps=0.6 q=39.9 size=     512KiB time=00:00:03.25 bitrate=1290.7kbits/s speed=0.0227x elapsed=0:02:23.27    \nframe=   80 fps=0.6 q=39.9 size=     512KiB time=00:00:03.25 bitrate=1290.7kbits/s speed=0.0226x elapsed=0:02:23.79    \nframe=   80 fps=0.6 q=39.9 size=     512KiB time=00:00:03.25 bitrate=1290.7kbits/s speed=0.0225x elapsed=0:02:24.32    \nframe=   80 fps=0.6 q=39.9 size=     512KiB time=00:00:03.25 bitrate=1290.7kbits/s speed=0.0224x elapsed=0:02:24.83    \nframe=   80 fps=0.6 q=39.9 size=     512KiB time=00:00:03.25 bitrate=1290.7kbits/s speed=0.0224x elapsed=0:02:25.35    \nframe=   82 fps=0.6 q=37.6 size=     512KiB time=00:00:03.33 bitrate=1258.4kbits/s speed=0.0229x elapsed=0:02:25.87    \nframe=   82 fps=0.6 q=37.6 size=     512KiB time=00:00:03.33 bitrate=1258.4kbits/s speed=0.0228x elapsed=0:02:26.38    \nframe=   82 fps=0.6 q=37.6 size=     512KiB time=00:00:03.33 bitrate=1258.4kbits/s speed=0.0227x elapsed=0:02:26.91    \nframe=   82 fps=0.6 q=37.6 size=     512KiB time=00:00:03.33 bitrate=1258.4kbits/s speed=0.0226x elapsed=0:02:27.43    \nframe=   83 fps=0.6 q=39.9 size=     512KiB time=00:00:03.37 bitrate=1242.9kbits/s speed=0.0228x elapsed=0:02:27.95    \nframe=   83 fps=0.6 q=39.9 size=     512KiB time=00:00:03.37 bitrate=1242.9kbits/s speed=0.0227x elapsed=0:02:28.49    \nframe=   83 fps=0.6 q=39.9 size=     512KiB time=00:00:03.37 bitrate=1242.9kbits/s speed=0.0226x elapsed=0:02:29.00    \nframe=   83 fps=0.6 q=39.9 size=     512KiB time=00:00:03.37 bitrate=1242.9kbits/s speed=0.0226x elapsed=0:02:29.52    \nframe=   83 fps=0.6 q=39.9 size=     512KiB time=00:00:03.37 bitrate=1242.9kbits/s speed=0.0225x elapsed=0:02:30.04    \nframe=   83 fps=0.6 q=39.9 size=     512KiB time=00:00:03.37 bitrate=1242.9kbits/s speed=0.0224x elapsed=0:02:30.56    \nframe=   84 fps=0.6 q=40.2 size=     512KiB time=00:00:03.41 bitrate=1227.7kbits/s speed=0.0226x elapsed=0:02:31.11    \nframe=   85 fps=0.6 q=35.4 size=     512KiB time=00:00:03.45 bitrate=1212.9kbits/s speed=0.0228x elapsed=0:02:31.63    \nframe=   85 fps=0.6 q=35.4 size=     512KiB time=00:00:03.45 bitrate=1212.9kbits/s speed=0.0227x elapsed=0:02:32.15    \nframe=   85 fps=0.6 q=35.4 size=     512KiB time=00:00:03.45 bitrate=1212.9kbits/s speed=0.0226x elapsed=0:02:32.68    \nframe=   86 fps=0.6 q=38.6 size=     512KiB time=00:00:03.50 bitrate=1198.5kbits/s speed=0.0228x elapsed=0:02:33.21    \nframe=   86 fps=0.6 q=38.6 size=     512KiB time=00:00:03.50 bitrate=1198.5kbits/s speed=0.0228x elapsed=0:02:33.72    \nframe=   86 fps=0.6 q=38.6 size=     512KiB time=00:00:03.50 bitrate=1198.5kbits/s speed=0.0227x elapsed=0:02:34.24    \nframe=   87 fps=0.6 q=40.2 size=     512KiB time=00:00:03.54 bitrate=1184.4kbits/s speed=0.0229x elapsed=0:02:34.76    \nframe=   87 fps=0.6 q=40.2 size=     512KiB time=00:00:03.54 bitrate=1184.4kbits/s speed=0.0228x elapsed=0:02:35.28    \nframe=   87 fps=0.6 q=40.2 size=     512KiB time=00:00:03.54 bitrate=1184.4kbits/s speed=0.0227x elapsed=0:02:35.81    \nframe=   87 fps=0.6 q=40.2 size=     512KiB time=00:00:03.54 bitrate=1184.4kbits/s speed=0.0227x elapsed=0:02:36.35    \nframe=   87 fps=0.6 q=40.2 size=     512KiB time=00:00:03.54 bitrate=1184.4kbits/s speed=0.0226x elapsed=0:02:36.88    \nframe=   88 fps=0.6 q=40.0 size=     512KiB time=00:00:03.58 bitrate=1170.6kbits/s speed=0.0228x elapsed=0:02:37.40    \nframe=   88 fps=0.6 q=40.0 size=     512KiB time=00:00:03.58 bitrate=1170.6kbits/s speed=0.0227x elapsed=0:02:37.92    \nframe=   88 fps=0.6 q=40.0 size=     512KiB time=00:00:03.58 bitrate=1170.6kbits/s speed=0.0226x elapsed=0:02:38.44    \nframe=   89 fps=0.6 q=39.4 size=     512KiB time=00:00:03.62 bitrate=1157.1kbits/s speed=0.0228x elapsed=0:02:38.98    \nframe=   89 fps=0.6 q=39.4 size=     512KiB time=00:00:03.62 bitrate=1157.1kbits/s speed=0.0227x elapsed=0:02:39.54    \nframe=   89 fps=0.6 q=39.4 size=     512KiB time=00:00:03.62 bitrate=1157.1kbits/s speed=0.0226x elapsed=0:02:40.06    \nframe=   89 fps=0.6 q=39.4 size=     512KiB time=00:00:03.62 bitrate=1157.1kbits/s speed=0.0226x elapsed=0:02:40.57    \nframe=   89 fps=0.6 q=39.4 size=     512KiB time=00:00:03.62 bitrate=1157.1kbits/s speed=0.0225x elapsed=0:02:41.10    \nframe=   90 fps=0.6 q=35.3 size=     512KiB time=00:00:03.66 bitrate=1144.0kbits/s speed=0.0227x elapsed=0:02:41.64    \nframe=   90 fps=0.6 q=35.3 size=     512KiB time=00:00:03.66 bitrate=1144.0kbits/s speed=0.0226x elapsed=0:02:42.18    \nframe=   90 fps=0.6 q=35.3 size=     512KiB time=00:00:03.66 bitrate=1144.0kbits/s speed=0.0225x elapsed=0:02:42.73    \nframe=   91 fps=0.6 q=35.8 size=     512KiB time=00:00:03.70 bitrate=1131.1kbits/s speed=0.0227x elapsed=0:02:43.27    \nframe=   91 fps=0.6 q=35.8 size=     512KiB time=00:00:03.70 bitrate=1131.1kbits/s speed=0.0226x elapsed=0:02:43.79    \nframe=   91 fps=0.6 q=35.8 size=     512KiB time=00:00:03.70 bitrate=1131.1kbits/s speed=0.0226x elapsed=0:02:44.33    \nframe=   91 fps=0.6 q=35.8 size=     512KiB time=00:00:03.70 bitrate=1131.1kbits/s speed=0.0225x elapsed=0:02:44.87    \nframe=   92 fps=0.6 q=40.5 size=     512KiB time=00:00:03.75 bitrate=1118.6kbits/s speed=0.0227x elapsed=0:02:45.39    \nframe=   92 fps=0.6 q=40.5 size=     512KiB time=00:00:03.75 bitrate=1118.6kbits/s speed=0.0226x elapsed=0:02:45.90    \nframe=   92 fps=0.6 q=40.5 size=     512KiB time=00:00:03.75 bitrate=1118.6kbits/s speed=0.0225x elapsed=0:02:46.43    \nframe=   93 fps=0.6 q=40.5 size=     512KiB time=00:00:03.79 bitrate=1106.3kbits/s speed=0.0227x elapsed=0:02:46.98    \nframe=   93 fps=0.6 q=40.5 size=     512KiB time=00:00:03.79 bitrate=1106.3kbits/s speed=0.0226x elapsed=0:02:47.50    \nframe=   93 fps=0.6 q=40.5 size=     512KiB time=00:00:03.79 bitrate=1106.3kbits/s speed=0.0226x elapsed=0:02:48.02    \nframe=   94 fps=0.6 q=40.7 size=     512KiB time=00:00:03.83 bitrate=1094.3kbits/s speed=0.0227x elapsed=0:02:48.53    \nframe=   95 fps=0.6 q=35.3 size=     512KiB time=00:00:03.87 bitrate=1082.5kbits/s speed=0.0229x elapsed=0:02:49.05    \nframe=   96 fps=0.6 q=38.1 size=     512KiB time=00:00:03.91 bitrate=1071.0kbits/s speed=0.0231x elapsed=0:02:49.56    \nframe=   96 fps=0.6 q=38.1 size=     512KiB time=00:00:03.91 bitrate=1071.0kbits/s speed=0.023x elapsed=0:02:50.09    \nframe=   97 fps=0.6 q=40.3 size=     512KiB time=00:00:03.95 bitrate=1059.7kbits/s speed=0.0232x elapsed=0:02:50.61    \nframe=   97 fps=0.6 q=40.3 size=     512KiB time=00:00:03.95 bitrate=1059.7kbits/s speed=0.0231x elapsed=0:02:51.12    \nframe=   98 fps=0.6 q=40.1 size=     512KiB time=00:00:04.00 bitrate=1048.7kbits/s speed=0.0233x elapsed=0:02:51.64    \nframe=   99 fps=0.6 q=35.3 size=     512KiB time=00:00:04.04 bitrate=1037.9kbits/s speed=0.0235x elapsed=0:02:52.17    \nframe=  100 fps=0.6 q=37.7 size=     512KiB time=00:00:04.08 bitrate=1027.3kbits/s speed=0.0236x elapsed=0:02:52.69    \nframe=  100 fps=0.6 q=37.7 size=     512KiB time=00:00:04.08 bitrate=1027.3kbits/s speed=0.0236x elapsed=0:02:53.19    \nframe=  101 fps=0.6 q=40.0 size=     512KiB time=00:00:04.12 bitrate=1016.9kbits/s speed=0.0237x elapsed=0:02:53.71    \nframe=  102 fps=0.6 q=40.0 size=     512KiB time=00:00:04.16 bitrate=1006.7kbits/s speed=0.0239x elapsed=0:02:54.23    \nframe=  102 fps=0.6 q=40.0 size=     512KiB time=00:00:04.16 bitrate=1006.7kbits/s speed=0.0238x elapsed=0:02:54.74    \nframe=  103 fps=0.6 q=35.5 size=     512KiB time=00:00:04.20 bitrate= 996.8kbits/s speed=0.024x elapsed=0:02:55.27    \nframe=  104 fps=0.6 q=37.5 size=     768KiB time=00:00:04.25 bitrate=1480.4kbits/s speed=0.0242x elapsed=0:02:55.77    \nframe=  104 fps=0.6 q=37.5 size=     768KiB time=00:00:04.25 bitrate=1480.4kbits/s speed=0.0241x elapsed=0:02:56.29    \nframe=  105 fps=0.6 q=40.0 size=     768KiB time=00:00:04.29 bitrate=1466.1kbits/s speed=0.0243x elapsed=0:02:56.80    \nframe=  106 fps=0.6 q=39.4 size=     768KiB time=00:00:04.33 bitrate=1452.0kbits/s speed=0.0244x elapsed=0:02:57.32    \nframe=  107 fps=0.6 q=35.3 size=     768KiB time=00:00:04.37 bitrate=1438.1kbits/s speed=0.0246x elapsed=0:02:57.84    \nframe=  108 fps=0.6 q=37.6 size=     768KiB time=00:00:04.41 bitrate=1424.6kbits/s speed=0.0248x elapsed=0:02:58.35    \nframe=  108 fps=0.6 q=37.6 size=     768KiB time=00:00:04.41 bitrate=1424.6kbits/s speed=0.0247x elapsed=0:02:58.87    \nframe=  109 fps=0.6 q=39.7 size=     768KiB time=00:00:04.45 bitrate=1411.2kbits/s speed=0.0249x elapsed=0:02:59.38    \nframe=  109 fps=0.6 q=39.7 size=     768KiB time=00:00:04.45 bitrate=1411.2kbits/s speed=0.0248x elapsed=0:02:59.89    \nframe=  110 fps=0.6 q=39.8 size=     768KiB time=00:00:04.50 bitrate=1398.2kbits/s speed=0.0249x elapsed=0:03:00.41    \nframe=  111 fps=0.6 q=35.3 size=     768KiB time=00:00:04.54 bitrate=1385.4kbits/s speed=0.0251x elapsed=0:03:00.93    \nframe=  111 fps=0.6 q=35.3 size=     768KiB time=00:00:04.54 bitrate=1385.4kbits/s speed=0.025x elapsed=0:03:01.45    \nframe=  112 fps=0.6 q=37.5 size=     768KiB time=00:00:04.58 bitrate=1372.8kbits/s speed=0.0252x elapsed=0:03:01.97    \nframe=  113 fps=0.6 q=39.7 size=     768KiB time=00:00:04.62 bitrate=1360.4kbits/s speed=0.0253x elapsed=0:03:02.47    \nframe=  114 fps=0.6 q=39.8 size=     768KiB time=00:00:04.66 bitrate=1348.2kbits/s speed=0.0255x elapsed=0:03:02.99    \nframe=  114 fps=0.6 q=39.8 size=     768KiB time=00:00:04.66 bitrate=1348.2kbits/s speed=0.0254x elapsed=0:03:03.51    \nframe=  115 fps=0.6 q=35.3 size=     768KiB time=00:00:04.70 bitrate=1336.3kbits/s speed=0.0256x elapsed=0:03:04.02    \nframe=  116 fps=0.6 q=37.6 size=     768KiB time=00:00:04.75 bitrate=1324.6kbits/s speed=0.0257x elapsed=0:03:04.54    \nframe=  117 fps=0.6 q=39.8 size=     768KiB time=00:00:04.79 bitrate=1313.1kbits/s speed=0.0259x elapsed=0:03:05.06    \nframe=  117 fps=0.6 q=39.8 size=     768KiB time=00:00:04.79 bitrate=1313.1kbits/s speed=0.0258x elapsed=0:03:05.58    \nframe=  118 fps=0.6 q=39.5 size=     768KiB time=00:00:04.83 bitrate=1301.8kbits/s speed=0.026x elapsed=0:03:06.08    \nframe=  120 fps=0.6 q=37.7 size=     768KiB time=00:00:04.91 bitrate=1279.7kbits/s speed=0.0263x elapsed=0:03:06.60    \nframe=  120 fps=0.6 q=37.7 size=     768KiB time=00:00:04.91 bitrate=1279.7kbits/s speed=0.0263x elapsed=0:03:07.11    \nframe=  121 fps=0.6 q=40.3 size=     768KiB time=00:00:04.95 bitrate=1268.9kbits/s speed=0.0264x elapsed=0:03:07.64    \nframe=  121 fps=0.6 q=40.3 size=     768KiB time=00:00:04.95 bitrate=1268.9kbits/s speed=0.0264x elapsed=0:03:08.15    \nframe=  122 fps=0.6 q=39.9 size=     768KiB time=00:00:05.00 bitrate=1258.4kbits/s speed=0.0265x elapsed=0:03:08.66    \nframe=  122 fps=0.6 q=39.9 size=     768KiB time=00:00:05.00 bitrate=1258.4kbits/s speed=0.0264x elapsed=0:03:09.19    \nframe=  124 fps=0.7 q=37.6 size=     768KiB time=00:00:05.08 bitrate=1237.7kbits/s speed=0.0268x elapsed=0:03:09.71    \nframe=  124 fps=0.7 q=37.6 size=     768KiB time=00:00:05.08 bitrate=1237.7kbits/s speed=0.0267x elapsed=0:03:10.23    \nframe=  125 fps=0.7 q=40.2 size=     768KiB time=00:00:05.12 bitrate=1227.7kbits/s speed=0.0269x elapsed=0:03:10.75    \nframe=  125 fps=0.7 q=40.2 size=     768KiB time=00:00:05.12 bitrate=1227.7kbits/s speed=0.0268x elapsed=0:03:11.26    \nframe=  126 fps=0.7 q=39.7 size=     768KiB time=00:00:05.16 bitrate=1217.8kbits/s speed=0.0269x elapsed=0:03:11.77    \nframe=  127 fps=0.7 q=35.1 size=     768KiB time=00:00:05.20 bitrate=1208.0kbits/s speed=0.0271x elapsed=0:03:12.29    \nframe=  128 fps=0.7 q=37.5 size=     768KiB time=00:00:05.25 bitrate=1198.4kbits/s speed=0.0272x elapsed=0:03:12.81    \nframe=  128 fps=0.7 q=37.5 size=     768KiB time=00:00:05.25 bitrate=1198.4kbits/s speed=0.0272x elapsed=0:03:13.32    \nframe=  129 fps=0.7 q=39.9 size=     768KiB time=00:00:05.29 bitrate=1189.0kbits/s speed=0.0273x elapsed=0:03:13.84    \nframe=  130 fps=0.7 q=40.4 size=     768KiB time=00:00:05.33 bitrate=1179.7kbits/s speed=0.0274x elapsed=0:03:14.36    \nframe=  130 fps=0.7 q=40.4 size=     768KiB time=00:00:05.33 bitrate=1179.7kbits/s speed=0.0274x elapsed=0:03:14.87    \nframe=  131 fps=0.7 q=35.4 size=     768KiB time=00:00:05.37 bitrate=1170.6kbits/s speed=0.0275x elapsed=0:03:15.38    \nframe=  132 fps=0.7 q=37.4 size=     768KiB time=00:00:05.41 bitrate=1161.6kbits/s speed=0.0276x elapsed=0:03:15.90    \nframe=  132 fps=0.7 q=37.4 size=     768KiB time=00:00:05.41 bitrate=1161.6kbits/s speed=0.0276x elapsed=0:03:16.41    \nframe=  133 fps=0.7 q=39.6 size=     768KiB time=00:00:05.45 bitrate=1152.7kbits/s speed=0.0277x elapsed=0:03:16.93    \nframe=  134 fps=0.7 q=39.6 size=     768KiB time=00:00:05.50 bitrate=1144.0kbits/s speed=0.0279x elapsed=0:03:17.45    \nframe=  134 fps=0.7 q=39.6 size=     768KiB time=00:00:05.50 bitrate=1144.0kbits/s speed=0.0278x elapsed=0:03:17.96    \nframe=  136 fps=0.7 q=37.3 size=     768KiB time=00:00:05.58 bitrate=1126.9kbits/s speed=0.0281x elapsed=0:03:18.47    \nframe=  136 fps=0.7 q=37.3 size=     768KiB time=00:00:05.58 bitrate=1126.9kbits/s speed=0.0281x elapsed=0:03:19.00    \nframe=  137 fps=0.7 q=39.3 size=     768KiB time=00:00:05.62 bitrate=1118.5kbits/s speed=0.0282x elapsed=0:03:19.50    \nframe=  138 fps=0.7 q=39.2 size=     768KiB time=00:00:05.66 bitrate=1110.3kbits/s speed=0.0283x elapsed=0:03:20.04    \nframe=  139 fps=0.7 q=37.6 size=    1024KiB time=00:00:05.70 bitrate=1469.6kbits/s speed=0.0285x elapsed=0:03:20.55    \nframe=  140 fps=0.7 q=39.8 size=    1024KiB time=00:00:05.75 bitrate=1458.9kbits/s speed=0.0286x elapsed=0:03:21.07    \nframe=  141 fps=0.7 q=31.1 size=    1024KiB time=00:00:05.79 bitrate=1448.5kbits/s speed=0.0287x elapsed=0:03:21.59    \nframe=  143 fps=0.7 q=40.2 size=    1024KiB time=00:00:05.87 bitrate=1427.9kbits/s speed=0.0291x elapsed=0:03:22.10    \nframe=  144 fps=0.7 q=42.9 size=    1024KiB time=00:00:05.91 bitrate=1417.9kbits/s speed=0.0292x elapsed=0:03:22.61    \nframe=  146 fps=0.7 q=42.9 size=    1024KiB time=00:00:06.00 bitrate=1398.2kbits/s speed=0.0295x elapsed=0:03:23.14    \nframe=  147 fps=0.7 q=33.4 size=    1024KiB time=00:00:06.04 bitrate=1388.5kbits/s speed=0.0297x elapsed=0:03:23.64    \nframe=  148 fps=0.7 q=36.7 size=    1024KiB time=00:00:06.08 bitrate=1379.0kbits/s speed=0.0298x elapsed=0:03:24.16    \nframe=  150 fps=0.7 q=36.2 size=    1024KiB time=00:00:06.16 bitrate=1360.4kbits/s speed=0.0301x elapsed=0:03:24.69    \nframe=  151 fps=0.7 q=32.2 size=    1024KiB time=00:00:06.20 bitrate=1351.2kbits/s speed=0.0303x elapsed=0:03:25.22    \nframe=  152 fps=0.7 q=35.2 size=    1024KiB time=00:00:06.25 bitrate=1342.2kbits/s speed=0.0304x elapsed=0:03:25.74    \nframe=  154 fps=0.7 q=35.6 size=    1024KiB time=00:00:06.33 bitrate=1324.6kbits/s speed=0.0307x elapsed=0:03:26.26    \nframe=  155 fps=0.7 q=31.9 size=    1024KiB time=00:00:06.37 bitrate=1315.9kbits/s speed=0.0308x elapsed=0:03:26.79    \nframe=  156 fps=0.8 q=34.1 size=    1024KiB time=00:00:06.41 bitrate=1307.4kbits/s speed=0.031x elapsed=0:03:27.30    \nframe=  157 fps=0.8 q=36.7 size=    1024KiB time=00:00:06.45 bitrate=1298.9kbits/s speed=0.0311x elapsed=0:03:27.82    \nframe=  158 fps=0.8 q=36.4 size=    1024KiB time=00:00:06.50 bitrate=1290.6kbits/s speed=0.0312x elapsed=0:03:28.34    \nframe=  159 fps=0.8 q=35.5 size=    1024KiB time=00:00:06.54 bitrate=1282.4kbits/s speed=0.0313x elapsed=0:03:28.86    \nframe=  160 fps=0.8 q=31.2 size=    1024KiB time=00:00:06.58 bitrate=1274.3kbits/s speed=0.0314x elapsed=0:03:29.37    \nframe=  161 fps=0.8 q=30.5 size=    1024KiB time=00:00:06.62 bitrate=1266.3kbits/s speed=0.0316x elapsed=0:03:29.89    \nframe=  163 fps=0.8 q=36.5 size=    1024KiB time=00:00:06.70 bitrate=1250.5kbits/s speed=0.0319x elapsed=0:03:30.39    \nframe=  164 fps=0.8 q=36.9 size=    1024KiB time=00:00:06.75 bitrate=1242.8kbits/s speed=0.032x elapsed=0:03:30.91    \nframe=  165 fps=0.8 q=31.3 size=    1024KiB time=00:00:06.79 bitrate=1235.2kbits/s speed=0.0321x elapsed=0:03:31.44    \nframe=  166 fps=0.8 q=32.2 size=    1024KiB time=00:00:06.83 bitrate=1227.7kbits/s speed=0.0322x elapsed=0:03:31.95    \nframe=  167 fps=0.8 q=37.7 size=    1024KiB time=00:00:06.87 bitrate=1220.2kbits/s speed=0.0324x elapsed=0:03:32.47    \nframe=  169 fps=0.8 q=36.2 size=    1024KiB time=00:00:06.95 bitrate=1205.6kbits/s speed=0.0327x elapsed=0:03:33.00    \nframe=  170 fps=0.8 q=30.8 size=    1024KiB time=00:00:07.00 bitrate=1198.4kbits/s speed=0.0328x elapsed=0:03:33.51    \nframe=  171 fps=0.8 q=35.7 size=    1280KiB time=00:00:07.04 bitrate=1489.2kbits/s speed=0.0329x elapsed=0:03:34.03    \nframe=  172 fps=0.8 q=36.2 size=    1280KiB time=00:00:07.08 bitrate=1480.4kbits/s speed=0.033x elapsed=0:03:34.55    \nframe=  174 fps=0.8 q=35.2 size=    1280KiB time=00:00:07.16 bitrate=1463.2kbits/s speed=0.0333x elapsed=0:03:35.07    \nframe=  175 fps=0.8 q=31.2 size=    1280KiB time=00:00:07.20 bitrate=1454.7kbits/s speed=0.0334x elapsed=0:03:35.58    \nframe=  176 fps=0.8 q=35.0 size=    1280KiB time=00:00:07.25 bitrate=1446.4kbits/s speed=0.0335x elapsed=0:03:36.10    \nframe=  178 fps=0.8 q=35.9 size=    1280KiB time=00:00:07.33 bitrate=1429.9kbits/s speed=0.0339x elapsed=0:03:36.62    \nframe=  179 fps=0.8 q=34.9 size=    1280KiB time=00:00:07.37 bitrate=1421.8kbits/s speed=0.034x elapsed=0:03:37.14    \nframe=  180 fps=0.8 q=30.8 size=    1280KiB time=00:00:07.41 bitrate=1413.9kbits/s speed=0.0341x elapsed=0:03:37.66    \nframe=  181 fps=0.8 q=33.6 size=    1280KiB time=00:00:07.45 bitrate=1406.0kbits/s speed=0.0342x elapsed=0:03:38.17    \nframe=  182 fps=0.8 q=34.2 size=    1280KiB time=00:00:07.50 bitrate=1398.1kbits/s speed=0.0343x elapsed=0:03:38.68    \nframe=  183 fps=0.8 q=34.2 size=    1280KiB time=00:00:07.54 bitrate=1390.4kbits/s speed=0.0344x elapsed=0:03:39.20    \nframe=  183 fps=0.8 q=34.2 size=    1280KiB time=00:00:07.54 bitrate=1390.4kbits/s speed=0.0343x elapsed=0:03:39.72    \nframe=  184 fps=0.8 q=30.4 size=    1280KiB time=00:00:07.58 bitrate=1382.8kbits/s speed=0.0344x elapsed=0:03:40.25    \nframe=  184 fps=0.8 q=30.4 size=    1280KiB time=00:00:07.58 bitrate=1382.8kbits/s speed=0.0343x elapsed=0:03:40.78    \nframe=  185 fps=0.8 q=33.4 size=    1280KiB time=00:00:07.62 bitrate=1375.2kbits/s speed=0.0345x elapsed=0:03:41.30    \nframe=  185 fps=0.8 q=33.4 size=    1280KiB time=00:00:07.62 bitrate=1375.2kbits/s speed=0.0344x elapsed=0:03:41.82    \nframe=  186 fps=0.8 q=34.2 size=    1280KiB time=00:00:07.66 bitrate=1367.8kbits/s speed=0.0345x elapsed=0:03:42.34    \nframe=  187 fps=0.8 q=34.1 size=    1280KiB time=00:00:07.70 bitrate=1360.4kbits/s speed=0.0346x elapsed=0:03:42.86    \nframe=  188 fps=0.8 q=30.0 size=    1280KiB time=00:00:07.75 bitrate=1353.0kbits/s speed=0.0347x elapsed=0:03:43.36    \nframe=  188 fps=0.8 q=30.0 size=    1280KiB time=00:00:07.75 bitrate=1353.0kbits/s speed=0.0346x elapsed=0:03:43.88    \nframe=  189 fps=0.8 q=33.4 size=    1280KiB time=00:00:07.79 bitrate=1345.8kbits/s speed=0.0347x elapsed=0:03:44.39    \nframe=  189 fps=0.8 q=33.4 size=    1280KiB time=00:00:07.79 bitrate=1345.8kbits/s speed=0.0346x elapsed=0:03:44.91    \nframe=  189 fps=0.8 q=33.4 size=    1280KiB time=00:00:07.79 bitrate=1345.8kbits/s speed=0.0346x elapsed=0:03:45.43    \nframe=  189 fps=0.8 q=33.4 size=    1280KiB time=00:00:07.79 bitrate=1345.8kbits/s speed=0.0345x elapsed=0:03:45.95    \nframe=  190 fps=0.8 q=34.7 size=    1280KiB time=00:00:07.83 bitrate=1338.7kbits/s speed=0.0346x elapsed=0:03:46.49    \nframe=  190 fps=0.8 q=34.7 size=    1280KiB time=00:00:07.83 bitrate=1338.7kbits/s speed=0.0345x elapsed=0:03:47.03    \nframe=  191 fps=0.8 q=34.9 size=    1280KiB time=00:00:07.87 bitrate=1331.6kbits/s speed=0.0346x elapsed=0:03:47.56    \nframe=  191 fps=0.8 q=34.9 size=    1280KiB time=00:00:07.87 bitrate=1331.6kbits/s speed=0.0345x elapsed=0:03:48.08    \nframe=  191 fps=0.8 q=34.9 size=    1280KiB time=00:00:07.87 bitrate=1331.6kbits/s speed=0.0345x elapsed=0:03:48.58    \nframe=  192 fps=0.8 q=33.3 size=    1280KiB time=00:00:07.91 bitrate=1324.6kbits/s speed=0.0346x elapsed=0:03:49.10    \nframe=  192 fps=0.8 q=33.3 size=    1280KiB time=00:00:07.91 bitrate=1324.6kbits/s speed=0.0345x elapsed=0:03:49.62    \nframe=  192 fps=0.8 q=33.3 size=    1280KiB time=00:00:07.91 bitrate=1324.6kbits/s speed=0.0344x elapsed=0:03:50.14    \nframe=  193 fps=0.8 q=29.4 size=    1280KiB time=00:00:07.95 bitrate=1317.6kbits/s speed=0.0345x elapsed=0:03:50.68    \nframe=  193 fps=0.8 q=29.4 size=    1280KiB time=00:00:07.95 bitrate=1317.6kbits/s speed=0.0344x elapsed=0:03:51.20    \nframe=  193 fps=0.8 q=29.4 size=    1280KiB time=00:00:07.95 bitrate=1317.6kbits/s speed=0.0343x elapsed=0:03:51.71    \nframe=  195 fps=0.8 q=34.4 size=    1280KiB time=00:00:08.04 bitrate=1304.0kbits/s speed=0.0346x elapsed=0:03:52.25    \nframe=  195 fps=0.8 q=34.4 size=    1280KiB time=00:00:08.04 bitrate=1304.0kbits/s speed=0.0345x elapsed=0:03:52.78    \nframe=  195 fps=0.8 q=34.4 size=    1280KiB time=00:00:08.04 bitrate=1304.0kbits/s speed=0.0345x elapsed=0:03:53.30    \nframe=  197 fps=0.8 q=35.5 size=    1280KiB time=00:00:08.12 bitrate=1290.6kbits/s speed=0.0347x elapsed=0:03:53.83    \nframe=  197 fps=0.8 q=35.5 size=    1280KiB time=00:00:08.12 bitrate=1290.6kbits/s speed=0.0347x elapsed=0:03:54.37    \nframe=  197 fps=0.8 q=35.5 size=    1280KiB time=00:00:08.12 bitrate=1290.6kbits/s speed=0.0346x elapsed=0:03:54.90    \nframe=  198 fps=0.8 q=29.6 size=    1280KiB time=00:00:08.16 bitrate=1284.0kbits/s speed=0.0347x elapsed=0:03:55.44    \nframe=  198 fps=0.8 q=29.6 size=    1280KiB time=00:00:08.16 bitrate=1284.0kbits/s speed=0.0346x elapsed=0:03:55.95    \nframe=  198 fps=0.8 q=29.6 size=    1280KiB time=00:00:08.16 bitrate=1284.0kbits/s speed=0.0345x elapsed=0:03:56.48    \nframe=  199 fps=0.8 q=30.5 size=    1280KiB time=00:00:08.20 bitrate=1277.5kbits/s speed=0.0346x elapsed=0:03:57.01    \nframe=  200 fps=0.8 q=36.1 size=    1280KiB time=00:00:08.25 bitrate=1271.0kbits/s speed=0.0347x elapsed=0:03:57.54    \nframe=  200 fps=0.8 q=36.1 size=    1280KiB time=00:00:08.25 bitrate=1271.0kbits/s speed=0.0347x elapsed=0:03:58.07    \nframe=  201 fps=0.8 q=35.2 size=    1280KiB time=00:00:08.29 bitrate=1264.7kbits/s speed=0.0348x elapsed=0:03:58.58    \nframe=  202 fps=0.8 q=35.0 size=    1280KiB time=00:00:08.33 bitrate=1258.3kbits/s speed=0.0348x elapsed=0:03:59.13    \nframe=  202 fps=0.8 q=35.0 size=    1280KiB time=00:00:08.33 bitrate=1258.3kbits/s speed=0.0348x elapsed=0:03:59.66    \nframe=  203 fps=0.8 q=29.3 size=    1280KiB time=00:00:08.37 bitrate=1252.1kbits/s speed=0.0349x elapsed=0:04:00.16    \nframe=  203 fps=0.8 q=29.3 size=    1280KiB time=00:00:08.37 bitrate=1252.1kbits/s speed=0.0348x elapsed=0:04:00.70    \nframe=  203 fps=0.8 q=29.3 size=    1280KiB time=00:00:08.37 bitrate=1252.1kbits/s speed=0.0347x elapsed=0:04:01.22    \nframe=  203 fps=0.8 q=29.3 size=    1280KiB time=00:00:08.37 bitrate=1252.1kbits/s speed=0.0346x elapsed=0:04:01.75    \nframe=  203 fps=0.8 q=29.3 size=    1280KiB time=00:00:08.37 bitrate=1252.1kbits/s speed=0.0346x elapsed=0:04:02.26    \nframe=  204 fps=0.8 q=33.8 size=    1280KiB time=00:00:08.41 bitrate=1245.9kbits/s speed=0.0347x elapsed=0:04:02.79    \nframe=  204 fps=0.8 q=33.8 size=    1280KiB time=00:00:08.41 bitrate=1245.9kbits/s speed=0.0346x elapsed=0:04:03.31    \nframe=  206 fps=0.8 q=34.5 size=    1280KiB time=00:00:08.50 bitrate=1233.7kbits/s speed=0.0349x elapsed=0:04:03.83    \nframe=  206 fps=0.8 q=34.5 size=    1280KiB time=00:00:08.50 bitrate=1233.7kbits/s speed=0.0348x elapsed=0:04:04.34    \nframe=  206 fps=0.8 q=34.5 size=    1280KiB time=00:00:08.50 bitrate=1233.7kbits/s speed=0.0347x elapsed=0:04:04.87    \nframe=  206 fps=0.8 q=34.5 size=    1280KiB time=00:00:08.50 bitrate=1233.7kbits/s speed=0.0346x elapsed=0:04:05.40    \nframe=  207 fps=0.8 q=33.4 size=    1280KiB time=00:00:08.54 bitrate=1227.6kbits/s speed=0.0347x elapsed=0:04:05.92    \nframe=  207 fps=0.8 q=33.4 size=    1280KiB time=00:00:08.54 bitrate=1227.6kbits/s speed=0.0347x elapsed=0:04:06.45    \nframe=  207 fps=0.8 q=33.4 size=    1280KiB time=00:00:08.54 bitrate=1227.6kbits/s speed=0.0346x elapsed=0:04:06.98    \nframe=  207 fps=0.8 q=33.4 size=    1280KiB time=00:00:08.54 bitrate=1227.6kbits/s speed=0.0345x elapsed=0:04:07.53    \nframe=  208 fps=0.8 q=29.4 size=    1280KiB time=00:00:08.58 bitrate=1221.7kbits/s speed=0.0346x elapsed=0:04:08.06    \nframe=  209 fps=0.8 q=32.7 size=    1536KiB time=00:00:08.62 bitrate=1458.9kbits/s speed=0.0347x elapsed=0:04:08.58    \nframe=  209 fps=0.8 q=32.7 size=    1536KiB time=00:00:08.62 bitrate=1458.9kbits/s speed=0.0346x elapsed=0:04:09.11    \nframe=  209 fps=0.8 q=32.7 size=    1536KiB time=00:00:08.62 bitrate=1458.9kbits/s speed=0.0345x elapsed=0:04:09.66    \nframe=  210 fps=0.8 q=33.8 size=    1536KiB time=00:00:08.66 bitrate=1451.9kbits/s speed=0.0346x elapsed=0:04:10.19    \nframe=  211 fps=0.8 q=33.8 size=    1536KiB time=00:00:08.70 bitrate=1445.0kbits/s speed=0.0347x elapsed=0:04:10.71    \nframe=  211 fps=0.8 q=33.8 size=    1536KiB time=00:00:08.70 bitrate=1445.0kbits/s speed=0.0347x elapsed=0:04:11.23    \nframe=  212 fps=0.8 q=32.2 size=    1536KiB time=00:00:08.75 bitrate=1438.1kbits/s speed=0.0348x elapsed=0:04:11.76    \nframe=  212 fps=0.8 q=32.2 size=    1536KiB time=00:00:08.75 bitrate=1438.1kbits/s speed=0.0347x elapsed=0:04:12.29    \nframe=  212 fps=0.8 q=32.2 size=    1536KiB time=00:00:08.75 bitrate=1438.1kbits/s speed=0.0346x elapsed=0:04:12.80    \nframe=  213 fps=0.8 q=28.7 size=    1536KiB time=00:00:08.79 bitrate=1431.3kbits/s speed=0.0347x elapsed=0:04:13.32    \nframe=  214 fps=0.8 q=32.3 size=    1536KiB time=00:00:08.83 bitrate=1424.5kbits/s speed=0.0348x elapsed=0:04:13.87    \nframe=  214 fps=0.8 q=32.3 size=    1536KiB time=00:00:08.83 bitrate=1424.5kbits/s speed=0.0347x elapsed=0:04:14.40    \nframe=  214 fps=0.8 q=32.3 size=    1536KiB time=00:00:08.83 bitrate=1424.5kbits/s speed=0.0346x elapsed=0:04:14.93    \nframe=  215 fps=0.8 q=33.5 size=    1536KiB time=00:00:08.87 bitrate=1417.8kbits/s speed=0.0347x elapsed=0:04:15.44    \nframe=  216 fps=0.8 q=33.8 size=    1536KiB time=00:00:08.91 bitrate=1411.2kbits/s speed=0.0348x elapsed=0:04:16.00    \nframe=  217 fps=0.8 q=32.5 size=    1536KiB time=00:00:08.95 bitrate=1404.6kbits/s speed=0.0349x elapsed=0:04:16.52    \nframe=  218 fps=0.8 q=28.4 size=    1536KiB time=00:00:09.00 bitrate=1398.1kbits/s speed=0.035x elapsed=0:04:17.04    \nframe=  218 fps=0.8 q=28.4 size=    1536KiB time=00:00:09.00 bitrate=1398.1kbits/s speed=0.0349x elapsed=0:04:17.55    \nframe=  219 fps=0.8 q=32.4 size=    1536KiB time=00:00:09.04 bitrate=1391.7kbits/s speed=0.035x elapsed=0:04:18.07    \nframe=  220 fps=0.9 q=33.4 size=    1536KiB time=00:00:09.08 bitrate=1385.3kbits/s speed=0.0351x elapsed=0:04:18.58    \nframe=  220 fps=0.8 q=33.4 size=    1536KiB time=00:00:09.08 bitrate=1385.3kbits/s speed=0.0351x elapsed=0:04:19.10    \nframe=  221 fps=0.9 q=33.4 size=    1536KiB time=00:00:09.12 bitrate=1379.0kbits/s speed=0.0351x elapsed=0:04:19.65    \nframe=  221 fps=0.8 q=33.4 size=    1536KiB time=00:00:09.12 bitrate=1379.0kbits/s speed=0.0351x elapsed=0:04:20.18    \nframe=  221 fps=0.8 q=33.4 size=    1536KiB time=00:00:09.12 bitrate=1379.0kbits/s speed=0.035x elapsed=0:04:20.69    \nframe=  221 fps=0.8 q=33.4 size=    1536KiB time=00:00:09.12 bitrate=1379.0kbits/s speed=0.0349x elapsed=0:04:21.21    \nframe=  222 fps=0.8 q=32.4 size=    1536KiB time=00:00:09.16 bitrate=1372.7kbits/s speed=0.035x elapsed=0:04:21.72    \nframe=  223 fps=0.9 q=28.4 size=    1536KiB time=00:00:09.20 bitrate=1366.5kbits/s speed=0.0351x elapsed=0:04:22.24    \nframe=  224 fps=0.9 q=31.2 size=    1536KiB time=00:00:09.25 bitrate=1360.4kbits/s speed=0.0352x elapsed=0:04:22.76    \nframe=  226 fps=0.9 q=31.1 size=    1536KiB time=00:00:09.33 bitrate=1348.2kbits/s speed=0.0355x elapsed=0:04:23.27    \nframe=  227 fps=0.9 q=27.8 size=    1536KiB time=00:00:09.37 bitrate=1342.2kbits/s speed=0.0355x elapsed=0:04:23.79    \nframe=  228 fps=0.9 q=29.9 size=    1536KiB time=00:00:09.41 bitrate=1336.3kbits/s speed=0.0356x elapsed=0:04:24.31    \nframe=  230 fps=0.9 q=31.3 size=    1536KiB time=00:00:09.50 bitrate=1324.6kbits/s speed=0.0359x elapsed=0:04:24.82    \nframe=  231 fps=0.9 q=30.4 size=    1536KiB time=00:00:09.54 bitrate=1318.8kbits/s speed=0.036x elapsed=0:04:25.34    \nframe=  231 fps=0.9 q=30.4 size=    1536KiB time=00:00:09.54 bitrate=1318.8kbits/s speed=0.0359x elapsed=0:04:25.85    \nframe=  233 fps=0.9 q=29.1 size=    1536KiB time=00:00:09.62 bitrate=1307.4kbits/s speed=0.0361x elapsed=0:04:26.37    \nframe=  233 fps=0.9 q=29.1 size=    1536KiB time=00:00:09.62 bitrate=1307.4kbits/s speed=0.0361x elapsed=0:04:26.89    \nframe=  235 fps=0.9 q=29.7 size=    1536KiB time=00:00:09.70 bitrate=1296.1kbits/s speed=0.0363x elapsed=0:04:27.40    \nframe=  236 fps=0.9 q=29.7 size=    1536KiB time=00:00:09.75 bitrate=1290.6kbits/s speed=0.0364x elapsed=0:04:27.91    \nframe=  236 fps=0.9 q=29.7 size=    1536KiB time=00:00:09.75 bitrate=1290.6kbits/s speed=0.0363x elapsed=0:04:28.43    \nframe=  239 fps=0.9 q=27.8 size=    1536KiB time=00:00:09.87 bitrate=1274.3kbits/s speed=0.0367x elapsed=0:04:28.94    \n[mp4 @ 0000019ad9c2b780] Starting second pass: moving the moov atom to the beginning of the file\n[out#0/mp4 @ 0000019ad9c2b680] video:1768KiB audio:0KiB subtitle:0KiB other streams:0KiB global headers:2KiB muxing overhead: 0.350740%\nframe=  240 fps=0.9 q=29.2 Lsize=    1774KiB time=00:00:09.91 bitrate=1465.7kbits/s speed=0.0368x elapsed=0:04:29.11    \nx265 [info]: frame I:      2, Avg QP:33.97  kb/s: 7725.89 \nx265 [info]: frame P:     55, Avg QP:33.74  kb/s: 3581.18 \nx265 [info]: frame B:    183, Avg QP:37.32  kb/s: 737.75  \nx265 [info]: Weighted P-Frames: Y:0.0% UV:0.0%\n\nencoded 240 frames in 268.90s (0.89 fps), 1447.60 kb/s, Avg QP:36.47\n",
  "seconds": 269.3291292190552,
  "probe_out": {}
}